PathFileType  4	(X/Y/Z) C:\Users\antoi\Documents\MyRepositories\mobilecap\ResultsAnalysis
DataRate	CameraRate	NumFrames	NumMarkers	Units	OrigDataRate	OrigDataStartFrame	OrigNumFrames
100.0	100.0	7	51	mm	100.0	102	271
Frame#	Time	r_knee			r_shank_antsup			r_ankle			r_calc			r_5meta			r_toe			L_knee			L_shank_antsup			L_ankle			L_calc			L_5meta			L_toe			r_sh2			r_sh3			r_sh4			L_sh2			L_sh3			r_thigh1			r_thigh2			r_thigh3			r_thigh4			r_thigh5			L_thigh1			L_thigh2			L_thigh3			L_thigh4			r.ASIS			r.PSIS			L.ASIS			L.PSIS			C7			R_Shoulder			L_Shoulder			R_Sternum			L_Sternum			R_humerus			R_elbow_med			R_elbow_lat			R_forearm			R_wrist_radius			R_wrist_ulna			L_humerus			L_elbow_med			L_elbow_lat			L_forearm			L_wrist_radius			L_wrist_ulna			R_HJC			L_HJC			R_HJC_reg			L_HJC_reg			
		X1	Y1	Z1	X2	Y2	Z2	X3	Y3	Z3	X4	Y4	Z4	X5	Y5	Z5	X6	Y6	Z6	X7	Y7	Z7	X8	Y8	Z8	X9	Y9	Z9	X10	Y10	Z10	X11	Y11	Z11	X12	Y12	Z12	X13	Y13	Z13	X14	Y14	Z14	X15	Y15	Z15	X16	Y16	Z16	X17	Y17	Z17	X18	Y18	Z18	X19	Y19	Z19	X20	Y20	Z20	X21	Y21	Z21	X22	Y22	Z22	X23	Y23	Z23	X24	Y24	Z24	X25	Y25	Z25	X26	Y26	Z26	X27	Y27	Z27	X28	Y28	Z28	X29	Y29	Z29	X30	Y30	Z30	X31	Y31	Z31	X32	Y32	Z32	X33	Y33	Z33	X34	Y34	Z34	X35	Y35	Z35	X36	Y36	Z36	X37	Y37	Z37	X38	Y38	Z38	X39	Y39	Z39	X40	Y40	Z40	X41	Y41	Z41	X42	Y42	Z42	X43	Y43	Z43	X44	Y44	Z44	X45	Y45	Z45	X46	Y46	Z46	X47	Y47	Z47	X48	Y48	Z48	X49	Y49	Z49	X50	Y50	Z50	X51	Y51	Z51	

102	1.01000000	-831.28824	740.00328	-425.35938	-829.46269	666.48998	-426.19374	-1101.69410	475.94363	-440.41353	-1163.10126	494.03228	-486.10165	-1066.59643	366.36696	-413.00227	-1022.26922	353.40666	-465.92456	-860.87495	717.30697	-746.03918	-875.49400	625.03143	-732.80872	-1136.22637	457.22020	-725.41485	-1204.97688	461.18861	-680.88952	-1086.27249	355.17874	-746.95527	-1031.16763	349.87280	-697.51456	-918.63714	596.60166	-417.09456	-871.11062	726.14797	-398.24281	-969.55770	660.38187	-397.17178	-918.45841	690.35580	-775.59239	-1010.54090	608.34432	-780.33165	-837.92974	989.41698	-392.35586	-805.76412	880.97152	-398.77051	-910.98715	849.78485	-427.20056	-945.69844	959.95808	-410.42888	-863.45113	842.26461	-401.18206	-858.29440	995.73265	-785.18706	-831.55619	860.53149	-770.86002	-968.71604	978.30970	-774.67135	-940.86525	844.08429	-739.96358	-805.69209	1157.52321	-484.56945	-994.48480	1252.18333	-552.28780	-816.27832	1155.31270	-703.65862	-996.83907	1248.18819	-634.36212	-764.95389	1633.25776	-599.60691	-708.78200	1608.67629	-479.50442	-717.85333	1610.66440	-716.32396	-655.90333	1547.97411	-577.60107	-658.31882	1543.28026	-615.57734	-662.89038	1551.51087	-388.54002	-665.24897	1367.38468	-259.76938	-635.45921	1426.48156	-228.48504	-550.84577	1450.73453	-265.34326	-427.65802	1448.13000	-327.57132	-416.87010	1427.46054	-296.89129	-682.06082	1578.75755	-813.12631	-626.80615	1405.03979	-955.16212	-613.92699	1474.27989	-973.70456	-508.72131	1483.82218	-951.14294	-391.13120	1471.12485	-910.99081	-385.12921	1453.87861	-947.10363	-911.33513	1101.68278	-485.32036	-918.35745	1099.95574	-692.70101	-897.05289	1120.14638	-510.06468	-901.19908	1113.11097	-654.61009	
103	1.02000000	-820.47421	752.57547	-423.21433	-818.04333	679.03222	-423.71390	-1085.73109	483.36562	-437.42419	-1143.92214	507.02831	-483.37352	-1060.49429	369.68082	-411.94349	-1016.98174	352.88919	-464.65846	-851.58728	729.78262	-749.60701	-865.97049	638.05105	-737.65221	-1123.84190	465.45208	-728.83805	-1191.13393	475.07982	-684.51751	-1081.85997	357.72746	-748.23684	-1027.21055	349.14432	-698.71288	-906.44307	607.97372	-414.92895	-861.27175	738.22268	-396.56976	-958.75296	671.92332	-395.52758	-909.72080	703.77778	-779.52612	-1001.57966	620.86366	-783.03451	-824.33069	1002.36697	-391.92877	-793.25827	893.27460	-397.69464	-898.96649	863.03946	-425.42401	-932.41412	973.94520	-408.73102	-851.41200	855.32138	-399.71836	-843.99180	1008.25422	-786.80277	-819.46440	872.28833	-773.72447	-954.69394	991.99349	-777.17125	-929.02015	857.34328	-742.91479	-790.92887	1173.79306	-484.81831	-980.44253	1263.94446	-553.55288	-800.78363	1169.89313	-702.74050	-982.25514	1259.94784	-635.60855	-756.88145	1647.69048	-600.04971	-703.16643	1624.73988	-479.90343	-711.40738	1626.21630	-715.76509	-647.05729	1563.63680	-577.35995	-648.42985	1560.01752	-616.91371	-659.23512	1568.64464	-387.10547	-669.16931	1385.43782	-256.04262	-638.35947	1444.32502	-225.03904	-553.12479	1466.95183	-260.56546	-429.52015	1461.50961	-322.20505	-419.19807	1441.41376	-291.08547	-678.54606	1596.06528	-814.50963	-630.88230	1422.96730	-960.49340	-616.92361	1492.36538	-978.49942	-511.17647	1499.67967	-959.74987	-392.57788	1484.22050	-922.22638	-387.56335	1467.51536	-959.11902	-895.29958	1115.87494	-485.13267	-901.37902	1112.64050	-692.52562	-881.24118	1133.87647	-510.63211	-884.41816	1126.87230	-654.42474	
104	1.03000000	-808.18632	764.54257	-421.81151	-805.01221	690.74088	-422.19329	-1068.95731	490.19718	-433.73342	-1123.69402	518.82235	-480.55938	-1053.24598	373.24212	-410.61376	-1009.96610	353.64474	-462.32921	-840.90677	742.69455	-752.42586	-854.63578	651.27703	-741.57732	-1109.02142	473.77967	-733.15810	-1174.78218	489.65766	-688.96971	-1076.43446	361.18387	-749.73903	-1022.69437	348.90847	-699.98634	-892.23094	618.61257	-412.72799	-849.60970	749.31342	-394.81246	-945.13296	681.59978	-393.96352	-899.33591	717.08557	-782.22481	-990.71222	633.50987	-785.41368	-810.91921	1014.69742	-391.84557	-780.43580	905.22310	-397.19376	-886.62966	875.69717	-423.96998	-919.16029	986.98428	-407.74536	-838.98802	867.80828	-398.64116	-830.01842	1020.95050	-788.37353	-807.07121	884.35723	-776.03924	-940.75625	1005.37238	-779.54312	-916.93196	870.54441	-745.31053	-776.76574	1189.33191	-485.41800	-966.82218	1275.52057	-554.80446	-785.92023	1184.25396	-701.96379	-968.03906	1271.63334	-636.80974	-748.21690	1660.93988	-600.57212	-697.17907	1639.45354	-480.56033	-704.46288	1640.56111	-715.19618	-637.83397	1578.22509	-576.10335	-638.99924	1574.93160	-617.07094	-655.43161	1584.88199	-385.60049	-673.50328	1402.25694	-252.82817	-641.47663	1460.87097	-221.70214	-555.51363	1481.32805	-256.06017	-431.28265	1472.43609	-316.49418	-421.62444	1452.81018	-284.90288	-675.09447	1611.98765	-815.83205	-635.41478	1439.50602	-965.51224	-620.16679	1508.80276	-982.83221	-513.89897	1513.42755	-968.35010	-394.30901	1494.85871	-933.52540	-390.34983	1478.75879	-971.27769	-879.94099	1129.57341	-485.26060	-885.11044	1125.29162	-692.65967	-866.12283	1147.27333	-511.61910	-868.24402	1140.49909	-654.52878	
105	1.04000000	-794.80316	775.74580	-421.01791	-791.00484	701.50346	-421.48790	-1052.84798	497.20726	-430.40513	-1105.23959	528.66499	-478.30756	-1042.86273	378.45412	-408.69161	-999.05091	357.82894	-459.14381	-828.98613	755.44318	-754.20217	-841.59467	664.04629	-744.30636	-1092.95034	481.82402	-738.24007	-1156.66548	503.92557	-693.78437	-1070.33395	365.55914	-751.79585	-1017.26025	349.74585	-701.90382	-876.91927	628.54489	-410.74267	-835.46130	759.47064	-393.16754	-929.69683	689.76829	-391.97596	-887.39382	729.80043	-783.65640	-977.85914	645.64139	-787.57235	-797.48421	1026.35347	-392.01840	-767.38796	916.81988	-397.03936	-873.88683	887.36211	-423.27061	-905.77907	998.79336	-407.83842	-826.12778	879.45878	-398.10281	-816.35993	1033.32575	-789.71884	-794.44384	896.47589	-777.62699	-927.00965	1018.13232	-781.41673	-904.54877	883.33918	-746.85037	-763.20239	1203.78714	-486.35925	-953.51940	1286.73992	-556.05423	-771.68989	1198.23508	-701.49272	-954.21536	1282.98171	-637.97870	-738.73903	1672.96185	-601.12049	-690.52470	1652.67007	-481.10020	-696.96386	1653.66431	-714.84034	-628.12329	1591.87137	-574.20564	-629.09549	1588.30983	-617.14240	-651.35319	1599.94360	-383.91972	-678.05653	1417.75840	-249.99551	-644.64368	1475.81770	-218.66656	-557.84692	1493.61404	-251.80957	-432.80304	1480.88847	-310.45845	-424.05037	1461.64610	-278.30420	-671.48883	1626.23865	-817.11693	-640.21705	1454.35960	-970.12044	-623.38407	1523.22094	-986.59879	-516.41665	1524.93820	-976.39730	-396.34980	1502.90172	-944.87641	-393.73712	1487.16258	-983.10800	-865.24858	1142.45411	-485.81952	-869.57387	1137.73155	-693.22851	-851.66761	1160.26600	-512.88308	-852.87326	1153.75321	-654.87489	
106	1.05000000	-780.74001	786.18513	-420.60223	-776.32497	711.37011	-420.98976	-1037.44648	505.42668	-427.90401	-1089.61040	536.60910	-476.25654	-1027.51884	386.44564	-405.90840	-983.28478	365.94406	-455.90925	-815.68314	767.58877	-755.20793	-827.05660	675.74672	-746.16321	-1077.16826	489.88982	-743.43440	-1138.34089	516.82281	-698.21368	-1063.00153	370.86450	-753.92164	-1009.61086	352.96342	-705.06900	-861.46006	637.83154	-409.30195	-819.58891	769.25756	-391.90361	-914.24497	698.31562	-389.23561	-873.62370	741.53339	-784.53515	-963.15636	656.71190	-789.78310	-784.08581	1037.29869	-392.29914	-754.05504	927.84615	-397.15250	-860.57029	897.78756	-423.64716	-892.40301	1009.45395	-408.55353	-812.73831	890.20068	-398.22100	-802.97796	1045.10875	-790.77756	-781.34610	908.28786	-778.44161	-913.55931	1030.05420	-782.46122	-891.57697	895.31503	-747.64754	-750.19526	1216.79468	-487.44138	-940.48890	1297.46887	-557.21436	-758.21804	1211.56471	-701.24430	-940.78845	1293.89835	-639.08192	-728.39605	1683.84561	-601.48704	-682.72300	1664.18197	-481.22561	-688.74252	1665.27150	-714.53091	-617.88301	1604.16148	-572.85234	-618.46937	1600.17392	-617.60549	-646.83625	1613.33925	-382.16496	-682.58369	1431.96646	-247.42676	-647.73304	1488.98884	-216.01733	-559.99875	1503.62862	-247.47413	-434.05054	1486.82787	-303.99784	-426.41170	1467.76040	-271.45256	-667.22397	1638.68233	-818.27671	-645.03160	1467.20783	-973.67983	-626.47543	1535.51104	-989.76296	-518.83563	1533.98729	-983.62139	-398.75422	1508.23654	-956.09758	-397.70356	1492.59432	-994.49239	-851.32590	1154.27447	-486.72785	-854.90029	1149.75684	-694.15570	-837.93947	1172.55035	-514.21980	-838.45648	1166.39478	-655.33662	
107	1.06000000	-766.02015	795.82054	-420.49218	-760.72467	720.61996	-420.31683	-1021.63732	514.50097	-426.05820	-1075.08302	543.55585	-474.05751	-1008.55072	396.13073	-402.74090	-964.39597	375.92484	-452.85237	-800.66904	778.74053	-755.98393	-811.43643	685.84783	-747.39182	-1062.01319	498.91732	-747.84490	-1121.53258	528.13243	-702.13214	-1052.28455	378.22144	-756.30550	-998.13928	359.98638	-709.19452	-845.75192	646.49803	-408.45264	-803.30395	778.91165	-391.07260	-898.81222	707.56525	-386.66784	-857.90616	751.89433	-785.52837	-947.11140	666.69140	-792.35581	-770.85936	1047.39626	-392.70479	-740.27999	938.12341	-397.51395	-846.64367	907.27139	-424.55311	-879.12609	1019.06679	-409.24718	-798.78114	900.13460	-398.68219	-789.78423	1056.23898	-791.74584	-767.50641	919.51544	-778.91079	-900.30493	1040.95099	-782.82068	-877.71974	906.15765	-748.12922	-737.85637	1228.09994	-488.35796	-927.84200	1307.59298	-558.25135	-745.60186	1223.89770	-701.18585	-927.78900	1304.40949	-640.06662	-717.42642	1693.73494	-601.46522	-673.30524	1673.88493	-480.94354	-679.56468	1675.24371	-714.04608	-607.14606	1614.66391	-572.39278	-607.53853	1610.15945	-618.33175	-641.60572	1624.46944	-380.46744	-686.64801	1444.74174	-245.35653	-650.58012	1500.39606	-213.67835	-561.81095	1511.41682	-242.80513	-435.03702	1490.20176	-297.03219	-428.66060	1471.00724	-264.41436	-661.89162	1649.27233	-819.29610	-649.63402	1477.97092	-976.07605	-629.50106	1545.69388	-992.33995	-521.62029	1540.44809	-990.39614	-401.49396	1510.76918	-967.05256	-402.20553	1495.22981	-1005.43160	-838.42651	1164.88173	-487.86512	-841.26925	1161.17491	-695.31952	-825.18102	1183.61077	-515.52456	-825.09106	1178.14382	-656.00433	
108	1.07000000	-750.49083	804.84149	-420.46182	-744.11708	729.52840	-419.73414	-1004.81180	522.95961	-424.57394	-1059.22466	550.24012	-472.15018	-989.25556	405.21287	-399.63182	-944.97613	385.16416	-449.40600	-783.87097	788.44698	-756.80388	-795.06984	694.37419	-748.11904	-1046.50490	509.34743	-751.04698	-1106.36670	538.31829	-705.84291	-1036.70359	388.58620	-760.33849	-982.80421	370.30922	-713.31388	-829.13934	654.66928	-408.04610	-787.01995	787.89638	-390.86203	-882.24705	716.05317	-385.61467	-840.61945	760.84308	-786.89791	-930.18070	675.93804	-795.10464	-757.83923	1056.54758	-393.29793	-726.12108	947.61979	-398.10369	-832.26771	915.92258	-425.32646	-865.83614	1027.47227	-409.95334	-784.36946	909.19659	-399.16309	-776.55815	1066.59041	-792.55757	-752.85257	930.08383	-779.40947	-887.01984	1050.57480	-783.00944	-862.92874	915.74086	-748.68283	-726.36505	1237.74274	-488.95576	-915.77633	1317.04456	-559.17077	-733.75525	1234.93787	-701.23364	-915.44129	1314.42807	-640.82069	-706.01864	1702.59298	-601.23363	-662.23246	1681.94618	-480.37531	-669.36124	1683.72619	-713.84027	-595.95258	1623.34298	-572.37624	-596.42460	1618.52010	-619.00643	-635.33194	1632.99962	-378.77503	-689.94971	1455.76852	-244.18801	-653.02905	1510.08149	-211.74220	-563.10022	1517.19436	-237.93673	-435.82918	1490.96012	-289.67687	-430.86927	1471.45359	-257.10264	-655.42702	1657.79475	-820.20661	-653.89649	1486.70759	-977.59071	-632.47603	1553.73008	-994.43396	-524.69050	1544.54021	-996.88269	-404.44690	1510.51421	-977.85068	-407.46497	1495.14093	-1015.75927	-826.71505	1174.28837	-489.04183	-828.76648	1171.76854	-696.52339	-813.45111	1193.30138	-516.61820	-812.87551	1188.81291	-656.74513	
